<svg xmlns="http://www.w3.org/2000/svg" aria-hidden="true" style="position:absolute;width:0;height:0;overflow:hidden"><defs><symbol id="icon-logo" fill="none" viewBox="0 0 24 24"><path fill="#1C1C24" d="M1.916 8.02s-.355-6.61 1.081-6.94C4.433.75 6.91 3.121 6.91 3.121l-4.994 4.9Zm13.566-4.738s2.651-2.64 4.53-2.2c1.878.44.443 5.658.443 5.658l-4.973-3.458Z"/><path fill="#F07F2E" stroke="#1C1C24" stroke-miterlimit="10" stroke-width=".4" d="M20.668 20.107c-1.99 1.572-3.32 2.086-5.583 2.698-1.51.409-5.312.388-8.856-1.038-2.482-1.086-3.455-2.267-3.923-2.91-.408-.56-1.238-1.802-1.285-3.16-.07-1.978-.011-3.908.897-7.674.907-3.768 4.994-4.9 4.994-4.9 4.465-1.053 8.172-.225 9.459 0 1.286.227 4.942 2.541 5.256 7.18.048.693.825 3.16.9 5.232.022.635.04 1.481-.276 2.35-.365 1-1.18 1.884-1.583 2.221Z"/><path fill="#1C1C24" d="M8.362 10.748a1.74 1.74 0 0 1 .106-.173l.056-.08.033-.043a2.343 2.343 0 0 1 .263-.272c.011-.01.07-.059.024-.022-.047.036.021-.014.036-.025a1.1 1.1 0 0 1 .118-.07l.062-.031c.041-.021-.073.023.007-.001.045-.014.09-.025.134-.035.06-.015-.076.002-.014.002.026 0 .053-.003.081-.002.025 0 .05.004.073.004.044 0-.071-.02-.03-.003.01.004.023.003.033.007l.076.02.033.013c.069.02-.04-.026-.006-.003.057.039.124.068.182.106a.648.648 0 0 1 .035.026c-.056-.043 0 0 .011.011.032.03.064.057.095.088a2.4 2.4 0 0 1 .371.484c.1.16.313.222.48.125a.353.353 0 0 0 .125-.477c-.375-.601-.944-1.21-1.722-1.074-.467.082-.833.45-1.1.816-.061.083-.12.169-.168.258a.355.355 0 0 0 .127.477c.157.09.39.04.479-.127Zm10.238-.5a1.853 1.853 0 0 1 .156-.242.859.859 0 0 0 .03-.042c.026-.034-.058.072-.005.01a2.346 2.346 0 0 1 .257-.266c.011-.01.07-.057.022-.02-.048.038.018-.012.033-.021a1.16 1.16 0 0 1 .112-.069l.058-.03c.041-.02-.077.025.004 0 .042-.012.085-.022.128-.033.059-.014-.078.004-.017.002.026 0 .051-.003.078-.002.024 0 .047.005.07.005.045 0-.073-.02-.032-.004.009.004.02.004.03.006l.072.02c.01.003.021.008.032.01.068.02-.042-.026-.01-.004.055.037.119.064.175.102a.765.765 0 0 1 .032.025c-.06-.046-.004-.003.007.008.03.028.062.054.091.083.154.153.235.272.355.461.099.16.313.223.479.126a.353.353 0 0 0 .126-.477c-.364-.582-.914-1.167-1.666-1.036-.453.08-.804.434-1.064.788-.058.08-.113.162-.16.248a.355.355 0 0 0 .126.477c.16.093.393.043.482-.125Z"/><path stroke="#1C1C24" stroke-miterlimit="10" stroke-width=".4" d="m10.622 13.772-3.626-.117m3.686 1.361-3.148.466m12.64-2.247 3.626-.117m-3.685 1.357 3.148.464m-8.276-.304s1.754 2.418 3.238-.044m-1.605-1.762v2.73"/><path fill="#1C1C24" d="M16.588 12.952c.735 0 1.33-.418 1.33-.934 0-.515-.595-.933-1.33-.933-.734 0-1.33.418-1.33.933 0 .516.596.934 1.33.934Z"/><path fill="#1C1C24" stroke="#1C1C24" stroke-miterlimit="10" stroke-width=".4" d="M4.94 11.631c1.18-1.216-2.59-3.768-2.867-3.877C2.06 7.749 1 12.524 1.055 15.4c.013.671.14 1.37.14 1.37.221.196.366.826 2.018.022.924-.45 1.107-1.368.265-1.544-1.618-.339.005-.7-.26-1.34-.67-1.615.482-.998 1.722-2.277Zm16.011 4.743c.137-1.43 1.48-1.026 1.48-1.026.446 2.61-1.116 4.383-2.242 5.004-.274 0-.536-1.596.079-1.8.614-.203.547-.748.683-2.178Z"/></symbol><symbol id="icon-close" viewBox="0 0 32 32"><path d="M4.292 5.708A.991.991 0 0 1 3.999 5a1.006 1.006 0 0 1 .618-.925 1.01 1.01 0 0 1 .766 0c.121.05.232.124.325.217L16 14.586 26.292 4.292A.991.991 0 0 1 27 3.999a1.002 1.002 0 0 1 .708 1.709L17.414 16l10.294 10.292a.991.991 0 0 1 .293.708 1.006 1.006 0 0 1-.618.925 1.01 1.01 0 0 1-.766 0 1.002 1.002 0 0 1-.325-.217L16 17.414 5.708 27.708a.991.991 0 0 1-.708.293 1.006 1.006 0 0 1-.925-.618 1.01 1.01 0 0 1 0-.766c.05-.121.124-.232.217-.325L14.586 16 4.292 5.708z"/></symbol><symbol id="icon-primary" viewBox="0 0 32 32"><path d="M6.2 1.4A.995.995 0 0 1 7 1h18a.993.993 0 0 1 .8.4l5.952 7.948c.298.37.312.9.02 1.288L16.8 30.6a.995.995 0 0 1-.8.4.993.993 0 0 1-.8-.4l-15-20a1 1 0 0 1 0-1.2l6-8zm22.772 7.57L25.36 4.15l-1.552 4.826 5.164-.006zm-7.266.008L23.628 3H8.372l1.926 5.99 11.408-.012zM10.94 10.99 16 26.732l5.064-15.752-10.124.01zM8.198 8.992l-1.56-4.844-3.636 4.85 5.196-.006zM2.998 11l10.226 13.634-4.384-13.64L2.998 11zm15.778 13.634 10.246-13.66-5.856.004-4.39 13.656z"/></symbol><symbol id="icon-check" viewBox="0 0 32 32"><path d="M5 16a10.998 10.998 0 0 1 16.499-9.528 1.003 1.003 0 0 0 1.36-.369 1.003 1.003 0 0 0-.36-1.363A12.995 12.995 0 0 0 6.807 6.806 13.005 13.005 0 0 0 4.74 22.498a13.001 13.001 0 0 0 21.571 1.416 13 13 0 0 0 2.687-7.913.997.997 0 0 0-1-1 .997.997 0 0 0-1 1 11 11 0 0 1-22 0z"/><path d="M30.708 6.708A.991.991 0 0 0 31.001 6a1.006 1.006 0 0 0-.618-.925 1.006 1.006 0 0 0-1.091.217L16 18.586l-5.292-5.294a.991.991 0 0 0-.708-.293 1.002 1.002 0 0 0-.708 1.709l6 6a.991.991 0 0 0 .708.293 1.002 1.002 0 0 0 .708-.293l14-14z"/></symbol><symbol id="icon-danger" viewBox="0 0 32 32"><path d="M9.08.292A.998.998 0 0 1 9.786 0h12.428c.265 0 .519.105.706.292l8.788 8.788a.998.998 0 0 1 .292.706v12.428a.998.998 0 0 1-.292.706l-8.788 8.788a.998.998 0 0 1-.706.292H9.786a.998.998 0 0 1-.706-.292L.292 22.92A.998.998 0 0 1 0 22.214V9.786c0-.265.105-.519.292-.706L9.08.292zM10.2 2 2 10.2v11.6l8.2 8.2h11.6l8.2-8.2V10.2L21.8 2H10.2z"/><path d="M9.292 9.292A.991.991 0 0 1 10 8.999a1.002 1.002 0 0 1 .708.293L16 14.586l5.292-5.294A.991.991 0 0 1 22 8.999a1.002 1.002 0 0 1 .708 1.709L17.414 16l5.294 5.292a.991.991 0 0 1 .293.708 1.006 1.006 0 0 1-.618.925 1.006 1.006 0 0 1-1.091-.217L16 17.414l-5.292 5.294a.991.991 0 0 1-.708.293 1.006 1.006 0 0 1-.925-.618 1.01 1.01 0 0 1 0-.766c.05-.121.124-.232.217-.325L14.586 16l-5.294-5.292A.991.991 0 0 1 8.999 10a1.002 1.002 0 0 1 .293-.708z"/></symbol><symbol id="icon-warning" viewBox="0 0 32 32"><path d="M15.876 4.032c.039-.021.083-.033.128-.032s.087.011.126.032a.289.289 0 0 1 .108.114L29.952 27.48a.35.35 0 0 1 .004.366.328.328 0 0 1-.108.12.237.237 0 0 1-.132.034H2.292a.237.237 0 0 1-.132-.034.32.32 0 0 1-.108-.12.35.35 0 0 1 .004-.366L15.768 4.146a.289.289 0 0 1 .108-.114zm2.088-.9a2.26 2.26 0 0 0-3.92 0L.33 26.466C-.584 28.022.512 30 2.29 30h27.426c1.778 0 2.876-1.98 1.96-3.534L17.964 3.132z"/><path d="M14.004 24a2.004 2.004 0 0 1 .586-1.414 1.986 1.986 0 0 1 1.414-.585 2.004 2.004 0 0 1 1.848 1.234 2 2 0 1 1-3.848.765zm.196-12.01a1.812 1.812 0 0 1 1.799-2.001c.254 0 .505.053.736.157s.439.254.609.443.298.411.376.652c.078.241.105.496.078.749l-.7 7.014a1.107 1.107 0 0 1-1.1 1.01 1.105 1.105 0 0 1-1.1-1.01l-.7-7.014z"/></symbol><symbol id="icon-info" viewBox="0 0 32 32"><path d="M16 30a14 14 0 1 1 0-28 14 14 0 0 1 0 28zm0 2a16.003 16.003 0 0 0 16-16A15.997 15.997 0 0 0 16 0 15.997 15.997 0 0 0 0 16a16.003 16.003 0 0 0 16 16z"/><path d="m17.86 13.176-4.58.574-.164.76.9.166c.588.14.704.352.576.938l-1.476 6.936c-.388 1.794.21 2.638 1.616 2.638 1.09 0 2.356-.504 2.93-1.196l.176-.832c-.4.352-.984.492-1.372.492-.55 0-.75-.386-.608-1.066l2.002-9.41zM18 9a2 2 0 1 1-4.001-.001A2 2 0 0 1 18 9z"/></symbol><symbol id="menu-columns" viewBox="0 0 32 32"><path d="M12 2v6H2V2h10zM2 0a2 2 0 0 0-2 2v6a2 2 0 0 0 2 2h10a2 2 0 0 0 2-2V2a2 2 0 0 0-2-2H2zm28 24v6H20v-6h10zm-10-2a2 2 0 0 0-2 2v6a2 2 0 0 0 2 2h10a2 2 0 0 0 2-2v-6a2 2 0 0 0-2-2H20zm-8-6v14H2V16h10zM2 14a2 2 0 0 0-2 2v14a2 2 0 0 0 2 2h10a2 2 0 0 0 2-2V16a2 2 0 0 0-2-2H2zM30 2v14H20V2h10zM20 0a2 2 0 0 0-2 2v14a2 2 0 0 0 2 2h10a2 2 0 0 0 2-2V2a2 2 0 0 0-2-2H20z"/></symbol><symbol id="menu-person-plus" viewBox="0 0 32 32"><path d="M12 16a5.996 5.996 0 0 0 6-6A6.002 6.002 0 0 0 7.757 5.757 6 6 0 0 0 12 16zm4-6a4.003 4.003 0 0 1-4 4 4.003 4.003 0 0 1-4-4 4.003 4.003 0 0 1 4-4 4.003 4.003 0 0 1 4 4zm8 16c0 2-2 2-2 2H2s-2 0-2-2 2-8 12-8 12 6 12 8zm-2-.008c-.002-.492-.308-1.972-1.664-3.328C19.032 21.36 16.578 20 12 20c-4.58 0-7.032 1.36-8.336 2.664C2.308 24.02 2.004 25.5 2 25.992h20zM27 10a.997.997 0 0 1 1 1v3h3a.997.997 0 0 1 1 1 .997.997 0 0 1-1 1h-3v3a.997.997 0 0 1-1 1 .997.997 0 0 1-1-1v-3h-3a.997.997 0 0 1-1-1 .997.997 0 0 1 1-1h3v-3a.997.997 0 0 1 1-1z"/></symbol><symbol id="menu-briefcase" viewBox="0 0 32 32"><path d="M13 2a3.004 3.004 0 0 0-3 3v1H3a3.004 3.004 0 0 0-3 3v16a3.004 3.004 0 0 0 3 3h26a3.004 3.004 0 0 0 3-3V9a3.004 3.004 0 0 0-3-3h-7V5a3.004 3.004 0 0 0-3-3h-6zm0 2h6a.997.997 0 0 1 1 1v1h-8V5a.997.997 0 0 1 1-1zm3.772 13.828L30 14.302V25a.997.997 0 0 1-1 1H3a.997.997 0 0 1-1-1V14.3l13.228 3.528a2.994 2.994 0 0 0 1.544 0zM3 8h26a.997.997 0 0 1 1 1v3.232l-13.742 3.664a1.003 1.003 0 0 1-.516 0L2 12.232V9a.997.997 0 0 1 1-1z"/></symbol><symbol id="menu-coin" viewBox="0 0 32 32"><path d="M11 19.022c.152 1.908 1.66 3.394 4.364 3.57V24h1.2v-1.418c2.8-.196 4.436-1.692 4.436-3.864 0-1.974-1.252-2.992-3.49-3.52l-.946-.224V11.14c1.2.136 1.964.792 2.148 1.7h2.104c-.152-1.838-1.728-3.276-4.252-3.432V8h-1.2v1.438c-2.39.234-4.02 1.672-4.02 3.706 0 1.8 1.212 2.944 3.226 3.414l.794.196v4.068c-1.23-.186-2.044-.86-2.228-1.8H11zm4.354-4.332c-1.18-.274-1.82-.832-1.82-1.672 0-.94.69-1.644 1.83-1.85v3.52l-.01.002zm1.384 2.386c1.434.332 2.096.87 2.096 1.82 0 1.084-.824 1.828-2.27 1.964v-3.824l.174.04z"/><path d="M16 30a14 14 0 1 1 0-28 14 14 0 0 1 0 28zm0 2a16.003 16.003 0 0 0 16-16A15.997 15.997 0 0 0 16 0 15.997 15.997 0 0 0 0 16a16.003 16.003 0 0 0 16 16z"/><path d="M16 27a11 11 0 1 1 0-22 11 11 0 0 1 0 22zm0 1a12 12 0 1 0 .002-24.003A12 12 0 0 0 16 28.002z"/></symbol><symbol id="menu-clipboard" viewBox="0 0 32 32"><path d="M21.708 14.292a.991.991 0 0 1 .293.708 1.002 1.002 0 0 1-.293.708l-6 6a.991.991 0 0 1-.708.293 1.002 1.002 0 0 1-.708-.293l-3-3a.991.991 0 0 1-.293-.708 1.006 1.006 0 0 1 .293-.708 1 1 0 0 1 1.416 0L15 19.586l5.292-5.294a.991.991 0 0 1 .708-.293 1.006 1.006 0 0 1 .708.293z"/><path d="M8 3H6a4.003 4.003 0 0 0-4 4v21a4.003 4.003 0 0 0 4 4h20a4.003 4.003 0 0 0 4-4V7a4.003 4.003 0 0 0-4-4h-2v2h2a2 2 0 0 1 2 2v21a2 2 0 0 1-2 2H6a2 2 0 0 1-2-2V7a2 2 0 0 1 2-2h2V3z"/><path d="M19 2a.997.997 0 0 1 1 1v2a.997.997 0 0 1-1 1h-6a.997.997 0 0 1-1-1V3a.997.997 0 0 1 1-1h6zm-6-2a3.004 3.004 0 0 0-3 3v2a3.004 3.004 0 0 0 3 3h6a3.004 3.004 0 0 0 3-3V3a3.004 3.004 0 0 0-3-3h-6z"/></symbol><symbol id="menu-envelope" viewBox="0 0 32 32"><path d="M0 8a4.003 4.003 0 0 1 4-4h24a4.003 4.003 0 0 1 4 4v16a4.003 4.003 0 0 1-4 4H4a4.003 4.003 0 0 1-4-4V8zm4-2a2 2 0 0 0-2 2v.434l14 8.4 14-8.4V8a2 2 0 0 0-2-2H4zm26 4.766-9.416 5.65L30 22.21V10.766zm-.068 13.752-11.28-6.942L16 19.166l-2.652-1.59-11.28 6.94A2 2 0 0 0 4 26h24a2.003 2.003 0 0 0 1.932-1.482zM2 22.21l9.416-5.794L2 10.766V22.21z"/></symbol><symbol id="menu-calendar" viewBox="0 0 32 32"><path d="M7 0a.997.997 0 0 1 1 1v1h16V1a.997.997 0 0 1 1-1 .997.997 0 0 1 1 1v1h2a4.003 4.003 0 0 1 4 4v22a4.003 4.003 0 0 1-4 4H4a4.003 4.003 0 0 1-4-4V6a4.003 4.003 0 0 1 4-4h2V1a.997.997 0 0 1 1-1zM4 4a2 2 0 0 0-2 2v2h28V6a2 2 0 0 0-2-2H4zm26 6H2v18a2 2 0 0 0 2 2h24a2 2 0 0 0 2-2V10z"/><path d="M18 15a.997.997 0 0 1 1-1h11v4H19a.997.997 0 0 1-1-1v-2zm-4 6v2a.997.997 0 0 1-1 1H2v-4h11a.997.997 0 0 1 1 1z"/></symbol><symbol id="menu-journal" viewBox="0 0 32 32"><path d="M10 21a.997.997 0 0 1 1-1h4a.997.997 0 0 1 1 1 .997.997 0 0 1-1 1h-4a.997.997 0 0 1-1-1zm0-4a.997.997 0 0 1 1-1h10a.997.997 0 0 1 1 1 .997.997 0 0 1-1 1H11a.997.997 0 0 1-1-1zm0-4a.997.997 0 0 1 1-1h10a.997.997 0 0 1 1 1 .997.997 0 0 1-1 1H11a.997.997 0 0 1-1-1zm0-4a.997.997 0 0 1 1-1h10a.997.997 0 0 1 1 1 .997.997 0 0 1-1 1H11a.997.997 0 0 1-1-1z"/><path d="M6 0h20a4.003 4.003 0 0 1 4 4v24a4.003 4.003 0 0 1-4 4H6a4.003 4.003 0 0 1-4-4v-2h2v2a2 2 0 0 0 2 2h20a2 2 0 0 0 2-2V4a2 2 0 0 0-2-2H6a2 2 0 0 0-2 2v2H2V4a4.003 4.003 0 0 1 4-4z"/><path d="M2 10V9a.997.997 0 0 1 1-1 .997.997 0 0 1 1 1v1h1a.997.997 0 0 1 1 1 .997.997 0 0 1-1 1H1a.997.997 0 0 1-1-1 .997.997 0 0 1 1-1h1zm0 6v-1a.997.997 0 0 1 1-1 .997.997 0 0 1 1 1v1h1a.997.997 0 0 1 1 1 .997.997 0 0 1-1 1H1a.997.997 0 0 1-1-1 .997.997 0 0 1 1-1h1zm0 6v-1a.997.997 0 0 1 1-1 .997.997 0 0 1 1 1v1h1a.997.997 0 0 1 1 1 .997.997 0 0 1-1 1H1a.997.997 0 0 1-1-1 .997.997 0 0 1 1-1h1z"/></symbol><symbol id="icon-menu" viewBox="0 0 32 32"><path d="M4 25a.997.997 0 0 1 1-1h22a.997.997 0 0 1 1 1 .997.997 0 0 1-1 1H5a.997.997 0 0 1-1-1zm0-6a.997.997 0 0 1 1-1h22a.997.997 0 0 1 1 1 .997.997 0 0 1-1 1H5a.997.997 0 0 1-1-1zm0-6a.997.997 0 0 1 1-1h22a.997.997 0 0 1 1 1 .997.997 0 0 1-1 1H5a.997.997 0 0 1-1-1zm0-6a.997.997 0 0 1 1-1h22a.997.997 0 0 1 1 1 .997.997 0 0 1-1 1H5a.997.997 0 0 1-1-1z"/></symbol><symbol id="icon-arrow-clockwise" viewBox="0 0 32 32"><path d="M16 6a10.006 10.006 0 0 0-9.594 7.19 10.005 10.005 0 0 0 4.201 11.229 10.005 10.005 0 0 0 11.957-.871 10.003 10.003 0 0 0 2.528-11.719c-.098-.239-.1-.506-.006-.747s.279-.435.513-.542a.999.999 0 0 1 1.309.455 12 12 0 1 1-10.907-6.994v2z"/><path d="M16 8.932V1.068a.498.498 0 0 1 .82-.383l4.72 3.932a.5.5 0 0 1 0 .768l-4.72 3.932a.498.498 0 0 1-.82-.383z"/></symbol><symbol id="icon-x-close" viewBox="0 0 32 32"><path d="M4.292 5.708A.991.991 0 0 1 3.999 5a1.006 1.006 0 0 1 .618-.925 1.01 1.01 0 0 1 .766 0c.121.05.232.124.325.217L16 14.586 26.292 4.292A.991.991 0 0 1 27 3.999a1.006 1.006 0 0 1 .925.618 1.006 1.006 0 0 1-.217 1.091L17.414 16l10.294 10.292a.991.991 0 0 1 .293.708 1.006 1.006 0 0 1-.618.925 1.006 1.006 0 0 1-1.091-.217L16 17.414 5.708 27.708a.991.991 0 0 1-.708.293 1.006 1.006 0 0 1-.925-.618 1.006 1.006 0 0 1 .217-1.091L14.586 16 4.292 5.708z"/></symbol><symbol id="icon-gear" viewBox="0 0 32 32"><path d="M16 9.508a6.49 6.49 0 1 0 6.492 6.49A6.49 6.49 0 0 0 16 9.506zM11.508 16A4.489 4.489 0 0 1 16 11.508 4.489 4.489 0 0 1 20.492 16 4.489 4.489 0 0 1 16 20.492 4.489 4.489 0 0 1 11.508 16z"/><path d="M19.592 2.686c-1.054-3.58-6.13-3.58-7.184 0l-.188.638a1.754 1.754 0 0 1-1.006 1.12 1.756 1.756 0 0 1-1.504-.079l-.584-.32c-3.28-1.784-6.866 1.804-5.08 5.082l.318.584a1.746 1.746 0 0 1-1.041 2.51l-.638.188c-3.58 1.054-3.58 6.13 0 7.184l.638.188a1.754 1.754 0 0 1 1.12 1.006 1.756 1.756 0 0 1-.079 1.504l-.32.584c-1.784 3.28 1.802 6.868 5.082 5.08l.584-.318a1.746 1.746 0 0 1 2.51 1.04l.188.638c1.054 3.58 6.13 3.58 7.184 0l.188-.638a1.754 1.754 0 0 1 1.006-1.12 1.74 1.74 0 0 1 1.504.08l.584.32c3.28 1.786 6.868-1.804 5.08-5.082l-.318-.584a1.746 1.746 0 0 1 1.04-2.51l.638-.188c3.58-1.054 3.58-6.13 0-7.184l-.638-.188a1.754 1.754 0 0 1-1.12-1.006 1.74 1.74 0 0 1 .08-1.504l.32-.584c1.786-3.28-1.804-6.866-5.082-5.08l-.584.318a1.746 1.746 0 0 1-2.51-1.041l-.188-.638zm-5.266.566c.492-1.67 2.856-1.67 3.348 0l.188.638a3.748 3.748 0 0 0 5.385 2.23l.582-.32c1.528-.83 3.2.84 2.368 2.37l-.318.584a3.756 3.756 0 0 0-.171 3.225 3.738 3.738 0 0 0 2.402 2.159l.636.188c1.67.492 1.67 2.856 0 3.348l-.638.188a3.748 3.748 0 0 0-2.23 5.385l.32.582c.83 1.528-.84 3.2-2.37 2.368l-.582-.318a3.76 3.76 0 0 0-3.227-.171 3.75 3.75 0 0 0-2.159 2.403l-.188.636c-.492 1.67-2.856 1.67-3.348 0l-.188-.638a3.737 3.737 0 0 0-2.16-2.401 3.755 3.755 0 0 0-3.225.171l-.584.32c-1.528.83-3.2-.84-2.368-2.37l.318-.582c.268-.491.423-1.036.452-1.594s-.066-1.116-.279-1.633a3.745 3.745 0 0 0-2.404-2.161l-.638-.188c-1.67-.492-1.67-2.856 0-3.348l.638-.188a3.742 3.742 0 0 0 2.229-5.382l-.32-.584c-.83-1.528.84-3.2 2.37-2.368l.584.318a3.756 3.756 0 0 0 3.225.171 3.748 3.748 0 0 0 2.16-2.401l.188-.638z"/></symbol><symbol id="icon-bell" viewBox="0 0 32 32"><path d="M16 32a4.003 4.003 0 0 0 4-4h-8a4.003 4.003 0 0 0 4 4zm0-28.164-1.594.322A8.005 8.005 0 0 0 8 12c0 1.256-.268 4.394-.918 7.484-.32 1.534-.752 3.132-1.326 4.516h20.488c-.574-1.384-1.004-2.98-1.326-4.516C24.268 16.394 24 13.256 24 12a7.998 7.998 0 0 0-6.406-7.84L16 3.836zM28.44 24c.446.894.962 1.602 1.56 2H2c.598-.398 1.114-1.106 1.56-2C5.36 20.4 6 13.76 6 12c0-4.84 3.44-8.88 8.01-9.802a2 2 0 1 1 3.98 0A10.002 10.002 0 0 1 26 12c0 1.76.64 8.4 2.44 12z"/></symbol><symbol id="icon-search" viewBox="0 0 32 32"><path d="M23.484 20.688a13 13 0 1 0-2.794 2.796h-.002c.06.08.124.156.196.23l7.7 7.7a2 2 0 0 0 2.83-2.828l-7.7-7.7a2.069 2.069 0 0 0-.23-.198zM24 13a10.998 10.998 0 0 1-18.778 7.779A10.988 10.988 0 0 1 2 13a11 11 0 0 1 22 0z"/></symbol><symbol id="icon-done" viewBox="0 0 32 32"><path d="M27.708 7.292a.991.991 0 0 1 .293.708 1.006 1.006 0 0 1-.293.708l-14 14a.991.991 0 0 1-.708.293 1.002 1.002 0 0 1-.708-.293l-7-7A1 1 0 0 1 6 13.999a1 1 0 0 1 .708.293L13 20.586 26.292 7.292A.991.991 0 0 1 27 6.999a1.002 1.002 0 0 1 .708.293z"/></symbol><symbol id="icon-geotag" viewBox="0 0 32 32"><path d="M16 32s12-11.372 12-20A12.003 12.003 0 0 0 16 0 12.003 12.003 0 0 0 4 12c0 8.628 12 20 12 20zm0-14a5.996 5.996 0 0 1-6-6 6.002 6.002 0 0 1 10.243-4.243A6 6 0 0 1 16 18z"/></symbol><symbol id="icon-down" viewBox="0 0 32 32"><path d="M3.292 9.292A.991.991 0 0 1 4 8.999a1.002 1.002 0 0 1 .708.293L16 20.586 27.292 9.292A.991.991 0 0 1 28 8.999a1.006 1.006 0 0 1 .925.618 1.006 1.006 0 0 1-.217 1.091l-12 12a.991.991 0 0 1-.708.293 1.002 1.002 0 0 1-.708-.293l-12-12A.991.991 0 0 1 2.999 10a1.002 1.002 0 0 1 .293-.708z"/></symbol><symbol id="icon-up" viewBox="0 0 32 32"><path d="M15.292 9.292A.991.991 0 0 1 16 8.999a1.002 1.002 0 0 1 .708.293l12 12A1 1 0 0 1 28 23.001a1 1 0 0 1-.708-.293L16 11.414 4.708 22.708A1 1 0 0 1 2.999 22c0-.266.106-.52.293-.708l12-12z"/></symbol><symbol id="icon-dash" viewBox="0 0 32 32"><path d="M4 16a.997.997 0 0 1 1-1h22a1 1 0 1 1 0 2H5a.997.997 0 0 1-1-1z"/></symbol><symbol id="icon-plus" viewBox="0 0 32 32"><path d="M16 8a.997.997 0 0 1 1 1v6h6a.997.997 0 0 1 1 1 .997.997 0 0 1-1 1h-6v6a.997.997 0 0 1-1 1 .997.997 0 0 1-1-1v-6H9a.997.997 0 0 1-1-1 .997.997 0 0 1 1-1h6V9a.997.997 0 0 1 1-1z"/></symbol><symbol id="icon-minus" viewBox="0 0 16 16"><path d="M4 8a.5.5 0 0 1 .5-.5h7a.5.5 0 0 1 0 1h-7A.5.5 0 0 1 4 8Z"/></symbol><symbol id="icon-sass" viewBox="0 0 32 32"><path d="M31.986 20.504c-.092-.745-.469-1.391-1.125-1.923a.172.172 0 0 0-.027-.027l-.033-.024-.011-.008-.404-.29a.239.239 0 0 0-.052-.022c-1.101-.656-2.924-1.115-5.714-.131-.666-1.12-.741-2.018-.296-3.393.079-.239.006-.398-.232-.5-.478-.203-1.131-.099-1.595.023-.216.056-.346.179-.387.364-.294 1.375-1.148 2.631-1.973 3.844l-.049.071c-.509-1.079-.403-1.914-.049-2.961.071-.209.015-.348-.181-.451-.546-.282-1.366-.088-1.692.008-.414.121-.857 1.239-1.353 2.578-.125.337-.233.625-.297.759-.153.313-.299.669-.454 1.047-.35.856-.744 1.819-1.308 2.424-.205-.453.118-1.168.431-1.861.371-.819.721-1.594.317-2.088a.727.727 0 0 0-.52-.27.816.816 0 0 0-.384.063c.042-.353.044-.632-.059-.969-.148-.481-.531-.75-1.058-.736-1.201.035-2.218.93-2.859 1.675-.428.5-1.375.881-2.207 1.216-.329.139-.641.264-.902.389-.416-.351-.944-.706-1.5-1.08-1.563-1.049-3.333-2.238-3.394-3.851-.087-2.382 2.625-4.071 4.992-5.277 1.794-.912 3.354-1.517 4.769-1.848 1.988-.464 3.666-.371 4.989.277.724.354 1.062 1.125.847 1.918-.562 2.059-2.893 3.471-4.886 4.106-1.201.383-2.223.543-3.125.49-1.131-.066-2.055-.633-2.45-.875a1.353 1.353 0 0 0-.2-.113l-.018-.004a.202.202 0 0 0-.2.062c-.081.097-.053.25-.023.328.384 1.004 1.178 1.639 2.359 1.886.386.077.78.115 1.174.112 2.763 0 6.289-1.593 7.584-2.905.883-.894 1.526-1.813 1.793-3.397.278-1.659-.847-2.813-1.993-3.344-2.786-1.286-5.949-.777-8.113-.125-2.531.763-5.15 2.151-7.184 3.808C.427 11.521-.48 13.416.239 15.12c.738 1.746 2.538 2.837 4.279 3.894.563.341 1.098.665 1.579 1-.145.071-.293.142-.444.214-1.461.708-3.119 1.505-4.038 2.822-.667.959-.792 1.914-.371 2.839.225.492.625.826 1.181.992.289.082.588.122.889.118 1.082 0 2.272-.438 2.921-.842 1.145-.719 1.887-1.684 2.206-2.868.284-1.054.216-2.101-.197-3.035l1.403-.707c-.677 2.25-.158 3.594.412 4.335.21.273.589.438 1.012.445s.813-.152 1.033-.423c.416-.516.724-1.119 1.007-1.722-.015.394.004.793.138 1.131.121.304.319.506.576.584.273.083.592.013.899-.197 1.386-.948 2.333-3.224 3.094-5.053.108-.26.212-.51.313-.744.188.674.45 1.325.781 1.942.074.134.067.192-.032.303-.151.165-.361.364-.583.576-.674.639-1.512 1.437-1.625 2.139-.044.281.15.538.451.596.904.18 1.994-.083 2.915-.703.837-.562 1.152-1.347.937-2.324-.208-.941.267-2.11 1.412-3.476.188.783.438 1.416.783 1.971l-.009.008c-.834.728-1.976 1.725-1.799 2.934a.837.837 0 0 0 .349.576.88.88 0 0 0 .7.128c1.092-.229 1.914-.691 2.511-1.411s.379-1.517.178-2.136c1.563-.424 2.954-.413 4.256.031.731.25 1.256.661 1.558 1.227.381.713.175 1.371-.581 1.853-.232.148-.344.239-.351.353a.162.162 0 0 0 .062.139c.087.072.357.197.968-.188.563-.353.892-.834.977-1.437a2.397 2.397 0 0 0-.001-.501zM7.003 22.071l-.006.08c-.098.915-.563 1.713-1.384 2.375-.516.416-1.077.672-1.578.721-.35.034-.604-.014-.756-.142-.113-.096-.174-.239-.188-.438-.103-1.593 2.395-3.175 3.801-3.696.1.357.138.729.111 1.099zm6.397-4.492c-.231 1.318-.906 3.806-1.966 4.772-.051.046-.093.062-.113.058s-.034-.027-.05-.063c-.354-.82-.223-2.205.313-3.293.412-.839 1-1.394 1.658-1.562a.294.294 0 0 1 .084-.012.092.092 0 0 1 .062.017c.008.012.013.026.015.04s.001.029-.003.043zm5.218 4.805c-.199.208-.473.18-.408.104l1.015-1.078c-.082.371-.324.678-.607.974zm4.211-.931a.876.876 0 0 1-.308.087c-.029-.567.521-1.205 1.062-1.631.146.591-.152 1.216-.754 1.544z"/></symbol><symbol id="icon-healthicons" viewBox="0 0 32 32"><path d="m16.639 10.201 6.219 3.937-1.16.844-5.749-3.639-5.693 3.637-1.152-.847 6.151-3.929a1.283 1.283 0 0 1 1.383-.003z"/><path d="m4.557 13.942 10.63 7.806a1.283 1.283 0 0 0 1.524.003l10.727-7.807c.779-.567.741-1.773-.07-2.287L16.639 4.866a1.286 1.286 0 0 0-1.383.003L4.627 11.661c-.805.514-.843 1.713-.071 2.28zm.788-1.157L15.95 6.01l10.709 6.78c.005.011.008.022.008.034s-.002.025-.007.037l-.001.003-.005.004-10.703 7.787-10.605-7.787a.018.018 0 0 1-.005-.004l-.002-.004c-.005-.011-.007-.024-.006-.036s.003-.023.008-.034l.001-.002.003-.003z"/><path d="m5.491 16.443 1.152.847-1.298.829-.003.003-.001.002a.087.087 0 0 0-.001.072l.001.001.005.004 10.605 7.787 10.71-7.795a.094.094 0 0 0-.002-.071l-.001-.002-.003-.002-1.32-.836 1.16-.843.873.553c.811.513.849 1.72.07 2.287l-10.727 7.806a1.286 1.286 0 0 1-1.524-.003l-10.63-7.807c-.772-.567-.735-1.765.071-2.28l.864-.552z"/></symbol><symbol id="icon-meta" viewBox="0 0 32 32"><path d="M29.75 18.664c0 1.969-.384 3.646-1.11 4.851-.881 1.462-2.25 2.235-3.96 2.235-3.343 0-5.788-4.564-8.375-9.396-2.162-4.032-4.611-8.604-7.055-8.604-2.91 0-5.5 6.104-5.5 10.914 0 1.696.31 3.105.895 4.077.612 1.015 1.487 1.509 2.675 1.509 2.02 0 4.039-3.133 5.75-6.196a.75.75 0 0 1 1.304.731c-1.875 3.37-4.125 6.966-7.055 6.966-1.709 0-3.079-.773-3.96-2.235-.726-1.205-1.11-2.883-1.11-4.851 0-5.061 2.726-12.414 7-12.414 3.343 0 5.787 4.564 8.375 9.396 2.161 4.032 4.61 8.604 7.055 8.604 1.188 0 2.063-.494 2.675-1.509.585-.973.895-2.381.895-4.077 0-4.81-2.589-10.914-5.5-10.914-1.125 0-2.364.97-3.767 2.966a.75.75 0 0 1-1.354-.304.743.743 0 0 1 .126-.56c1.089-1.546 2.791-3.603 4.995-3.603 4.274 0 7 7.353 7 12.414z"/></symbol><symbol id="icon-corporal" viewBox="0 0 32 32"><path d="M15.999 5.819c-1.85 2.98-5.912 7.847-9.374 10.281v3.306c3.32-2.433 6.57-5.784 8.785-9.107l.59-.885.59.885c2.208 3.313 5.498 6.643 8.785 9.092v-3.287c-3.524-2.434-7.541-7.309-9.376-10.285zm0 6.775c-1.85 2.98-5.912 7.848-9.374 10.282v3.305c3.32-2.433 6.57-5.784 8.785-9.107l.59-.885.59.885c2.208 3.313 5.498 6.644 8.785 9.092v-3.287c-3.524-2.434-7.541-7.309-9.376-10.285z"/></symbol><symbol id="icon-system" viewBox="0 0 32 32"><path stroke-linecap="round" stroke-linejoin="round" stroke-width="0.6154" d="m28.19 12.19-4.571-6.095H8.395L3.81 12.19m24.38 0L16 27.428M28.19 12.19H3.809M16 27.429 3.809 12.191M16 27.429l-4.571-15.238M16 27.429l4.571-15.238"/><path stroke-linecap="round" stroke-linejoin="round" stroke-width="0.6154" d="m8.395 6.095 3.034 6.095L16 6.095l4.571 6.095 3.048-6.095"/></symbol><symbol id="icon-thunder" viewBox="0 0 32 32"><path stroke-linecap="round" stroke-linejoin="round" stroke-width="0.6154" d="M11.105 27.17c1.754-1.103 2.945-4.855.685-6.823l-5.275 7.735c-.427.624-.2 1.289 1.13.67l13.127-6.117a2.152 2.152 0 0 0 1.001-2.879l-.004-.008-4.56-9.85c-.547-1.126.323-2.903 1.924-4.209m1.761-.859c-1.753 1.103-2.945 4.855-.685 6.823l5.275-7.735c.427-.624.2-1.289-1.13-.67L11.227 9.365a2.152 2.152 0 0 0-1.001 2.879l.004.008 4.56 9.85c.547 1.126-.323 2.903-1.924 4.21"/></symbol></defs></svg>